<?xml version="1.0" standalone="no"?>
<!DOCTYPE svg PUBLIC "-//W3C//DTD SVG 20010904//EN"
 "http://www.w3.org/TR/2001/REC-SVG-20010904/DTD/svg10.dtd">
<svg version="1.0" xmlns="http://www.w3.org/2000/svg"
 width="192.000000pt" height="192.000000pt" viewBox="0 0 192.000000 192.000000"
 preserveAspectRatio="xMidYMid meet">
<metadata>
Created by potrace 1.14, written by Peter Selinger 2001-2017
</metadata>
<g transform="translate(0.000000,192.000000) scale(0.100000,-0.100000)"
fill="#000000" stroke="none">
<path d="M0 960 l0 -960 960 0 960 0 0 960 0 960 -960 0 -960 0 0 -960z m1016
445 c-20 -21 -21 -79 0 -99 19 -19 36 -20 52 -4 9 9 12 9 12 0 0 -19 -39 -34
-71 -27 -67 15 -70 120 -4 145 27 10 31 5 11 -15z m134 -9 c0 -68 -12 -126
-27 -126 -11 0 -14 16 -12 73 2 65 9 86 32 87 4 0 7 -15 7 -34z m-66 8 c10
-25 1 -27 -19 -4 -15 17 -16 20 -3 20 9 0 19 -7 22 -16z m-184 -51 c0 -11 -6
-14 -21 -10 -19 5 -21 2 -17 -29 4 -30 1 -34 -19 -34 -21 0 -23 5 -23 44 0 43
1 45 33 48 39 4 47 1 47 -19z m-117 10 c3 -5 7 -26 8 -47 l4 -40 -43 -3 c-32
-2 -44 1 -49 13 -3 9 0 20 8 25 20 13 29 11 29 -6 0 -8 4 -15 9 -15 5 0 8 12
6 28 -2 15 -4 32 -5 37 0 6 -7 2 -15 -9 -7 -10 -19 -15 -25 -11 -18 11 9 35
41 35 15 0 30 -3 32 -7z m743 -25 c-3 -18 -8 -52 -12 -76 -7 -42 -8 -43 -38
-37 -62 13 -66 16 -66 45 0 31 22 60 46 60 16 0 19 -17 4 -22 -15 -5 -17 -60
-3 -65 13 -5 19 11 28 80 5 39 10 47 27 47 17 0 19 -5 14 -32z m-1061 -34 c1
-21 7 -40 14 -42 20 -7 11 -22 -13 -22 -15 0 -27 7 -29 18 -16 56 -17 75 -6
88 17 21 31 3 34 -42z m211 9 c12 -39 11 -43 -5 -43 -12 0 -21 11 -27 32 -5
17 -15 33 -23 36 -10 3 -12 -5 -6 -37 6 -37 5 -41 -14 -41 -16 0 -20 8 -23 37
-2 20 -9 38 -16 41 -10 3 -13 -7 -11 -39 3 -34 0 -44 -13 -47 -12 -2 -18 7
-23 38 -4 23 -3 46 1 50 12 11 48 16 104 16 43 -1 44 -2 56 -43z m582 -5 l3
-46 -40 2 c-44 2 -68 17 -57 35 11 17 46 14 40 -4 -4 -8 -2 -15 4 -15 9 0 24
60 17 68 -2 2 -12 -2 -24 -9 -22 -14 -37 -7 -26 11 4 6 23 10 43 8 36 -3 37
-4 40 -50z m67 2 c-6 -33 -4 -40 9 -40 11 0 16 9 16 30 0 18 6 33 15 37 24 9
28 -2 20 -52 -5 -38 -9 -45 -23 -40 -9 4 -28 8 -42 9 -22 1 -25 6 -28 49 -3
42 -1 47 18 47 20 0 21 -4 15 -40z m268 25 c1 -5 -6 -11 -15 -13 -11 -2 -18 3
-18 13 0 17 30 18 33 0z m-1329 -11 c9 -24 8 -25 -13 -12 -11 7 -17 16 -15 20
8 13 21 9 28 -8z m-61 -17 c-4 -20 1 -24 38 -32 48 -11 70 -36 53 -62 -16 -25
-33 -28 -27 -4 4 15 -1 21 -18 25 -81 16 -79 15 -79 46 0 23 15 44 36 50 1 0
-1 -10 -3 -23z m187 -7 c4 -8 13 -26 19 -39 11 -19 10 -25 -1 -32 -21 -13 -29
-11 -35 11 -6 23 -23 27 -23 5 0 -8 5 -15 12 -15 9 0 9 -3 1 -11 -15 -15 -43
-4 -43 15 0 9 9 20 21 27 15 8 20 18 16 35 -3 18 0 24 11 22 8 -2 18 -10 22
-18z m-50 -4 c0 -16 -18 -31 -27 -22 -8 8 5 36 17 36 5 0 10 -6 10 -14z m1240
-15 c0 -10 -3 -32 -6 -49 -5 -23 -10 -29 -25 -25 -12 4 -18 12 -15 22 3 9 8
28 12 44 7 30 34 37 34 8z m70 1 c0 -4 -4 -22 -9 -39 -6 -22 -6 -35 1 -39 13
-8 28 14 28 44 0 15 6 22 20 22 23 0 24 -8 8 -61 -11 -39 -21 -48 -33 -29 -3
6 -19 10 -36 10 -31 0 -35 10 -23 69 5 21 12 31 25 31 11 0 19 -3 19 -8z
m-1417 -103 c-10 -3 -21 -1 -25 5 -14 21 -8 26 18 14 23 -11 24 -13 7 -19z
m1086 -115 c-12 -13 -40 -32 -61 -41 -45 -20 -49 -33 -10 -33 38 0 116 -41
120 -62 5 -25 -19 -23 -79 8 -86 43 -219 46 -219 4 0 -23 -29 -27 -49 -7 -10
10 -15 9 -25 -5 -9 -12 -27 -18 -52 -18 -78 -1 -9 -17 96 -23 58 -3 141 -15
185 -27 44 -12 110 -26 148 -31 37 -5 91 -19 119 -30 62 -24 168 -88 168 -101
0 -25 -186 30 -274 82 -73 43 -277 104 -276 83 1 -12 78 -65 143 -98 61 -31
137 -103 137 -130 0 -35 -52 -3 -164 102 -117 109 -136 120 -71 42 24 -28 33
-45 26 -52 -19 -19 -52 8 -94 78 l-42 70 -75 3 c-68 3 -269 -14 -279 -24 -2
-2 4 -15 13 -28 15 -24 19 -25 84 -19 47 4 71 2 76 -6 4 -6 0 -14 -8 -17 -28
-11 -17 -20 36 -33 52 -11 78 -26 78 -42 0 -14 -57 -10 -97 6 -48 20 -54 19
-43 -11 26 -67 -9 -59 -52 14 -32 53 -37 57 -67 54 -23 -3 -37 2 -47 15 -12
17 -13 17 -14 1 0 -10 -2 -18 -4 -18 -2 0 -11 -3 -20 -6 -11 -4 -19 2 -26 20
-8 21 -16 26 -46 26 -40 0 -162 -46 -241 -91 -29 -17 -53 -26 -53 -21 0 6 33
28 73 50 39 22 94 63 120 90 43 44 48 52 38 71 -15 26 -7 41 22 41 16 0 18 3
9 12 -20 20 -13 36 24 54 30 15 37 15 45 3 11 -18 11 -26 -1 -34 -6 -4 -5 -13
3 -26 10 -16 9 -21 -3 -29 -8 -6 -23 -8 -33 -6 -19 5 -23 -14 -6 -31 17 -17 2
-33 -30 -33 -20 0 -34 -8 -46 -26 -17 -26 -17 -27 1 -21 11 3 49 14 85 25 101
30 104 33 117 103 12 65 40 107 62 94 12 -7 10 -31 -5 -70 -5 -12 12 -1 41 27
52 50 153 103 167 89 14 -14 2 -26 -96 -92 -90 -60 -147 -104 -147 -112 0 -2
35 1 78 8 79 13 151 40 165 63 4 6 14 12 21 12 8 0 16 9 19 20 5 21 31 27 42
10 9 -15 25 -12 25 5 0 19 39 20 46 1 12 -32 153 33 209 95 25 29 30 31 33 16
2 -11 -6 -30 -19 -43z"/>
<path d="M849 1032 c-41 -27 -103 -86 -69 -67 33 19 130 86 130 90 0 11 -18 4
-61 -23z"/>
<path d="M713 1005 c-13 -24 -25 -75 -18 -75 10 0 36 62 33 78 -3 15 -5 14
-15 -3z"/>
<path d="M565 1000 c3 -5 8 -10 11 -10 2 0 4 5 4 10 0 6 -5 10 -11 10 -5 0 -7
-4 -4 -10z"/>
<path d="M1060 990 c0 -5 5 -10 10 -10 6 0 10 5 10 10 0 6 -4 10 -10 10 -5 0
-10 -4 -10 -10z"/>
<path d="M525 980 c4 -6 11 -8 16 -5 14 9 11 15 -7 15 -8 0 -12 -5 -9 -10z"/>
<path d="M1005 970 c3 -5 8 -10 11 -10 2 0 4 5 4 10 0 6 -5 10 -11 10 -5 0 -7
-4 -4 -10z"/>
<path d="M1271 966 c2 -2 20 -11 39 -20 l35 -17 -24 21 c-13 11 -30 20 -39 20
-8 0 -13 -2 -11 -4z"/>
<path d="M560 950 c0 -5 5 -10 10 -10 6 0 10 5 10 10 0 6 -4 10 -10 10 -5 0
-10 -4 -10 -10z"/>
<path d="M1040 940 c0 -5 5 -10 10 -10 6 0 10 5 10 10 0 6 -4 10 -10 10 -5 0
-10 -4 -10 -10z"/>
<path d="M520 880 c0 -5 5 -10 10 -10 6 0 10 5 10 10 0 6 -4 10 -10 10 -5 0
-10 -4 -10 -10z"/>
<path d="M600 830 c-12 -8 -9 -10 12 -10 15 0 30 5 33 10 8 13 -25 13 -45 0z"/>
<path d="M1380 805 c0 -19 202 -96 216 -82 8 8 -84 55 -139 72 -52 15 -77 19
-77 10z"/>
<path d="M615 790 c-3 -5 -1 -10 4 -10 6 0 11 5 11 10 0 6 -2 10 -4 10 -3 0
-8 -4 -11 -10z"/>
<path d="M1120 784 c0 -18 26 -47 39 -43 8 3 3 13 -13 28 -14 14 -26 20 -26
15z"/>
<path d="M1245 740 c30 -34 117 -102 123 -95 9 9 -56 70 -101 95 l-42 23 20
-23z"/>
<path d="M895 725 c34 -16 72 -21 45 -6 -8 5 -28 11 -45 14 l-30 6 30 -14z"/>
<path d="M800 710 c6 -11 13 -20 16 -20 2 0 0 9 -6 20 -6 11 -13 20 -16 20 -2
0 0 -9 6 -20z"/>
</g>
</svg>
